<svg width="24" height="24" viewBox="0 0 24 24" fill="none" xmlns="http://www.w3.org/2000/svg">
<path d="M12 2C16.9706 2 21 6.02944 21 11C21 15.9706 16.9706 20 12 20C7.02944 20 3 15.9706 3 11C3 6.02944 7.02944 2 12 2ZM12 22C17.5228 22 22 17.5228 22 12C22 6.47715 17.5228 2 12 2C6.47715 2 2 6.47715 2 12C2 17.5228 6.47715 22 12 22ZM12 4C15.3137 4 18 6.68629 18 10C18 13.3137 15.3137 16 12 16C8.68629 16 6 13.3137 6 10C6 6.68629 8.68629 4 12 4ZM12 20C15.3137 20 18 17.3137 18 14C18 10.6863 15.3137 8 12 8C8.68629 8 6 10.6863 6 14C6 17.3137 8.68629 20 12 20Z" fill="#C60F7B"/>
</svg>